# Blender v2.82 (sub 7) OBJ File: ''
# www.blender.org
o Pawn
v -0.137379 0.092148 0.000000
v -0.137379 -0.045229 -0.137377
v -0.194283 -0.045230 0.000000
v -0.097142 -0.182607 -0.097140
v -0.137379 -0.182607 0.000000
v -0.000002 0.149051 0.000000
v -0.097142 0.092148 -0.097140
v -0.000002 -0.239510 0.000000
v -0.000002 -0.182607 -0.137377
v -0.000002 0.092148 -0.137377
v -0.000002 -0.045229 -0.194280
v 0.097138 -0.182607 -0.097140
v 0.097138 0.092148 -0.097140
v 0.137375 -0.045229 -0.137377
v 0.194279 -0.045230 0.000000
v 0.137375 -0.182607 0.000000
v 0.137375 0.092148 0.000000
v 0.097138 -0.182607 0.097140
v 0.137375 -0.045230 0.137377
v 0.097138 0.092148 0.097140
v -0.000002 -0.182607 0.137377
v -0.000002 0.092148 0.137377
v -0.000002 -0.045230 0.194281
v -0.097142 -0.182607 0.097140
v -0.137379 -0.045230 0.137377
v -0.097142 0.092148 0.097140
v 0.163503 -0.693048 -0.163506
v 0.257248 -0.737014 0.000000
v 0.181901 -0.737014 -0.181903
v -0.231234 -0.693048 -0.000000
v -0.181905 -0.737014 -0.181904
v -0.257252 -0.737014 -0.000000
v -0.163508 -0.693048 0.163505
v -0.181905 -0.737014 0.181903
v -0.000002 -0.693048 -0.231232
v -0.000002 -0.737014 -0.257250
v -0.163507 -0.693048 -0.163506
v -0.234998 -0.907120 0.234996
v -0.375002 -1.002148 -0.000001
v -0.265167 -1.002148 0.265165
v -0.202234 -0.886692 -0.202233
v -0.000002 -0.907120 -0.332335
v -0.234997 -0.907120 -0.234996
v -0.000002 -0.886692 -0.286000
v 0.234994 -0.907120 -0.234996
v -0.000002 -0.737014 0.257250
v 0.354771 -0.804378 0.000000
v 0.250860 -0.804378 -0.250863
v -0.000002 -0.804378 -0.354774
v 0.181901 -0.737014 0.181903
v -0.000002 -0.693048 0.231232
v 0.250860 -0.804378 0.250863
v -0.000002 -0.907120 0.332335
v -0.000002 -1.002148 0.375000
v -0.202235 -0.886692 0.202233
v -0.332337 -0.907120 -0.000000
v -0.286002 -0.886692 -0.000000
v -0.250865 -0.804378 -0.250863
v -0.250865 -0.804378 0.250863
v -0.000002 -0.804378 0.354774
v -0.354776 -0.804378 -0.000000
v 0.265163 -1.002148 0.265165
v 0.202230 -0.886692 0.202233
v 0.234994 -0.907120 0.234996
v -0.000002 -0.886692 0.286000
v 0.265163 -1.002148 -0.265165
v 0.332332 -0.907120 -0.000000
v 0.374998 -1.002148 -0.000000
v 0.285998 -0.886692 -0.000000
v 0.202230 -0.886692 -0.202233
v -0.000002 -1.002148 -0.375000
v -0.265167 -1.002148 -0.265165
v 0.132484 -0.677824 -0.132486
v -0.132487 -0.677824 -0.132486
v 0.231230 -0.693048 0.000000
v 0.132484 -0.677824 0.132486
v 0.163503 -0.693048 0.163506
v -0.187365 -0.677824 -0.000000
v -0.090490 -0.301769 -0.090488
v -0.132488 -0.677824 0.132486
v -0.000002 -0.301770 0.127969
v 0.156402 -0.265020 0.156405
v -0.000002 -0.265020 0.221190
v 0.127967 -0.301770 0.000000
v 0.187361 -0.677824 0.000000
v -0.090490 -0.301770 0.090488
v -0.000002 -0.301769 -0.127969
v 0.090486 -0.301769 -0.090488
v -0.000002 -0.677824 0.187363
v 0.090486 -0.301770 0.090488
v -0.000002 -0.677824 -0.187363
v -0.127971 -0.301770 -0.000000
v -0.156406 -0.265020 -0.156405
v -0.000002 -0.202991 -0.056785
v -0.000002 -0.265020 -0.221189
v -0.156407 -0.265020 0.156405
v 0.221187 -0.265020 0.000000
v -0.221192 -0.265020 -0.000000
v 0.156402 -0.265020 -0.156404
v -0.056787 -0.202991 -0.000000
v -0.000002 -0.202991 0.056785
v 0.040151 -0.202991 -0.040153
v -0.040155 -0.202991 -0.040153
v -0.040155 -0.202991 0.040153
v 0.056783 -0.202991 0.000000
v 0.040151 -0.202991 0.040153
vt 0.342868 0.760251
vt 0.270755 0.688138
vt 0.270755 0.760251
vt 0.198642 0.709260
vt 0.198642 0.760251
vt 0.498215 0.824851
vt 0.431591 0.852448
vt 0.498215 0.880044
vt 0.845187 0.782134
vt 0.911810 0.754537
vt 0.911810 0.809730
vt 0.850676 0.570457
vt 0.922789 0.642570
vt 0.922789 0.591578
vt 0.459188 0.919071
vt 0.872783 0.848757
vt 0.778563 0.591578
vt 0.850676 0.642570
vt 0.922789 0.693561
vt 0.403995 0.919071
vt 0.817591 0.848757
vt 0.778563 0.642570
vt 0.850676 0.714683
vt 0.854129 0.021535
vt 0.782016 0.072527
vt 0.782016 0.000414
vt 0.709903 0.072527
vt 0.709903 0.021535
vt 0.364968 0.880044
vt 0.778563 0.809730
vt 0.778563 0.754538
vt 0.854129 0.072527
vt 0.782016 0.144639
vt 0.709903 0.123518
vt 0.364968 0.824852
vt 0.817590 0.715510
vt 0.782016 0.289693
vt 0.709903 0.217580
vt 0.782016 0.217580
vt 0.854129 0.217580
vt 0.854129 0.268571
vt 0.403995 0.785824
vt 0.872783 0.715510
vt 0.782016 0.145467
vt 0.854129 0.166589
vt 0.459187 0.785824
vt 0.342868 0.811243
vt 0.270755 0.832364
vt 0.198642 0.811243
vt 0.323585 0.546282
vt 0.346664 0.460453
vt 0.346664 0.555939
vt 0.522121 0.881310
vt 0.499042 0.785824
vt 0.499042 0.881310
vt 0.522121 0.967138
vt 0.499042 0.976796
vt 0.546856 0.881310
vt 0.569935 0.976795
vt 0.569935 0.881310
vt 0.546856 0.795482
vt 0.569935 0.785824
vt 0.904839 0.262961
vt 0.854956 0.139606
vt 0.854956 0.278798
vt 0.219037 0.387438
vt 0.322757 0.459380
vt 0.228345 0.364968
vt 0.300286 0.468687
vt 0.322757 0.592898
vt 0.546028 0.881310
vt 0.522949 0.795482
vt 0.546028 0.785824
vt 0.485345 0.297226
vt 0.364968 0.243735
vt 0.465755 0.344521
vt 0.588698 0.297226
vt 0.608289 0.344521
vt 0.546028 0.976796
vt 0.522949 0.881310
vt 0.412263 0.224144
vt 0.364968 0.101201
vt 0.854129 0.429712
vt 0.804246 0.568904
vt 0.804246 0.429712
vt 0.022884 0.468688
vt 0.094826 0.364968
vt 0.000414 0.459380
vt 0.104134 0.387438
vt 0.661779 0.224144
vt 0.709075 0.243735
vt 0.485345 0.047710
vt 0.608288 0.000414
vt 0.465754 0.000414
vt 0.661779 0.120791
vt 0.709075 0.101201
vt 0.588698 0.047710
vt 0.804246 0.290520
vt 0.104134 0.664840
vt 0.000414 0.592899
vt 0.094826 0.687311
vt 0.022885 0.583591
vt 0.854956 0.279626
vt 0.904839 0.418817
vt 0.854956 0.418817
vt 0.999586 0.132098
vt 0.956377 0.238255
vt 0.956377 0.132098
vt 0.948876 0.305153
vt 0.905667 0.411310
vt 0.948876 0.411310
vt 0.904839 0.542173
vt 0.854956 0.558009
vt 0.999586 0.000414
vt 0.956377 0.025941
vt 0.948876 0.517467
vt 0.905667 0.139606
vt 0.955549 0.278797
vt 0.955549 0.139606
vt 0.966826 0.833826
vt 0.923617 0.702141
vt 0.923617 0.808299
vt 0.966826 0.570457
vt 0.923617 0.595984
vt 0.257607 0.000414
vt 0.364140 0.257607
vt 0.106947 0.364140
vt 0.430658 0.345349
vt 0.514745 0.366624
vt 0.523557 0.345349
vt 0.386243 0.419852
vt 0.364968 0.411039
vt 0.589248 0.411039
vt 0.567973 0.495127
vt 0.589248 0.503939
vt 0.905667 0.016251
vt 0.955549 0.000414
vt 0.949704 0.542994
vt 0.992912 0.411310
vt 0.992912 0.517467
vt 0.949704 0.279626
vt 0.992912 0.305153
vt 0.787476 0.414894
vt 0.590075 0.462394
vt 0.787476 0.484440
vt 0.386243 0.495127
vt 0.364968 0.503939
vt 0.523558 0.569629
vt 0.323585 0.374625
vt 0.346664 0.364968
vt 0.439470 0.548354
vt 0.430658 0.569629
vt 0.904839 0.139606
vt 0.854956 0.000414
vt 0.219037 0.664840
vt 0.228345 0.687311
vt 0.497944 0.739787
vt 0.579507 0.722159
vt 0.516670 0.784997
vt 0.777736 0.709547
vt 0.580335 0.640002
vt 0.777736 0.640002
vt 0.197814 0.688138
vt 0.000414 0.757684
vt 0.000414 0.710184
vt 0.777736 0.849465
vt 0.580335 0.779920
vt 0.580335 0.827419
vt 0.197814 0.827229
vt 0.197814 0.757684
vt 0.777736 0.570457
vt 0.580335 0.592503
vt 0.777736 0.710375
vt 0.777736 0.779920
vt 0.590076 0.367395
vt 0.590076 0.414894
vt 0.364968 0.633294
vt 0.460831 0.650188
vt 0.427805 0.570457
vt 0.410177 0.703433
vt 0.410177 0.652020
vt 0.427805 0.784997
vt 0.446531 0.739788
vt 0.497944 0.615666
vt 0.579507 0.633294
vt 0.534298 0.652020
vt 0.534298 0.703433
vt 0.446531 0.615666
vt 0.364968 0.722159
vt 0.516670 0.570457
vt 0.444699 0.689134
vt 0.483644 0.705265
vt 0.483644 0.650188
vt 0.444699 0.666320
vt 0.460831 0.705265
vt 0.499776 0.666320
vt 0.499776 0.689134
vt 0.342868 0.709260
vt 0.778563 0.693561
vt 0.854129 0.123518
vt 0.709903 0.268571
vt 0.709903 0.166589
vt 0.323585 0.460453
vt 0.522121 0.795482
vt 0.546856 0.967138
vt 0.300286 0.583591
vt 0.522949 0.967138
vt 0.412263 0.120791
vt 0.854129 0.553067
vt 0.854129 0.306357
vt 0.904839 0.295462
vt 0.999586 0.263782
vt 0.905667 0.279626
vt 0.905667 0.542994
vt 0.905667 0.262961
vt 0.966826 0.702141
vt 0.000414 0.257607
vt 0.000414 0.106947
vt 0.106947 0.000414
vt 0.364140 0.106947
vt 0.257607 0.364140
vt 0.439470 0.366624
vt 0.567973 0.419852
vt 0.949704 0.411310
vt 0.514745 0.548354
vt 0.904839 0.016250
vt 0.580335 0.687501
vt 0.000414 0.805183
vt 0.580335 0.732421
vt 0.787476 0.345349
vn -0.7486 0.6630 0.0000
vn -0.7071 0.0000 -0.7071
vn -1.0000 -0.0000 0.0000
vn -0.5294 -0.6630 -0.5294
vn -0.7486 -0.6630 -0.0000
vn -0.0000 1.0000 0.0000
vn -0.5294 0.6630 -0.5294
vn -0.0000 -1.0000 -0.0000
vn 0.0000 -0.6630 -0.7486
vn -0.0000 0.6630 -0.7486
vn -0.0000 0.0000 -1.0000
vn 0.5294 -0.6630 -0.5294
vn 0.5294 0.6630 -0.5294
vn 0.7071 0.0000 -0.7071
vn 1.0000 0.0000 0.0000
vn 0.7486 -0.6630 -0.0000
vn 0.7486 0.6630 0.0000
vn 0.5294 -0.6630 0.5294
vn 0.7071 -0.0000 0.7071
vn 0.5294 0.6630 0.5294
vn -0.0000 -0.6630 0.7486
vn -0.0000 0.6630 0.7486
vn -0.0000 -0.0000 1.0000
vn -0.5294 -0.6630 0.5294
vn -0.7071 0.0000 0.7071
vn -0.5294 0.6630 0.5294
vn 0.4799 0.7344 -0.4799
vn 0.7049 0.7093 0.0000
vn 0.4984 0.7093 -0.4984
vn -0.6788 0.7344 0.0000
vn -0.4984 0.7093 -0.4984
vn -0.7049 0.7093 -0.0000
vn -0.4799 0.7344 0.4799
vn -0.4984 0.7093 0.4984
vn -0.0000 0.7344 -0.6788
vn 0.0000 0.7093 -0.7049
vn -0.4799 0.7344 -0.4799
vn -0.5262 0.6680 0.5262
vn -0.8844 -0.4667 -0.0000
vn -0.6254 -0.4667 0.6254
vn -0.6773 0.2874 -0.6773
vn 0.0000 0.6680 -0.7442
vn -0.5262 0.6680 -0.5262
vn -0.0000 0.2874 -0.9578
vn 0.5262 0.6680 -0.5262
vn -0.0000 0.7093 0.7049
vn 0.9933 0.1156 0.0000
vn 0.7024 0.1156 -0.7024
vn 0.0000 0.1156 -0.9933
vn 0.4984 0.7093 0.4984
vn -0.0000 0.7344 0.6788
vn 0.7024 0.1156 0.7024
vn 0.0000 0.6680 0.7442
vn -0.0000 -0.4667 0.8844
vn -0.6773 0.2873 0.6773
vn -0.7442 0.6680 0.0000
vn -0.9578 0.2874 -0.0000
vn -0.7024 0.1156 -0.7024
vn -0.7024 0.1156 0.7024
vn 0.0000 0.1156 0.9933
vn -0.9933 0.1156 -0.0000
vn 0.6254 -0.4667 0.6254
vn 0.6773 0.2874 0.6773
vn 0.5262 0.6680 0.5262
vn 0.0000 0.2874 0.9578
vn 0.6254 -0.4667 -0.6254
vn 0.7442 0.6680 0.0000
vn 0.8844 -0.4667 0.0000
vn 0.9578 0.2874 -0.0000
vn 0.6773 0.2874 -0.6773
vn 0.0000 -0.4667 -0.8844
vn -0.6254 -0.4667 -0.6254
vn 0.4971 0.7111 -0.4971
vn -0.4971 0.7111 -0.4971
vn 0.6788 0.7344 0.0000
vn 0.4971 0.7111 0.4971
vn 0.4799 0.7344 0.4800
vn -0.7031 0.7111 -0.0000
vn -0.5781 -0.5759 -0.5781
vn -0.4971 0.7111 0.4971
vn 0.0000 -0.5759 0.8175
vn 0.7071 0.0061 0.7071
vn 0.0000 0.0061 1.0000
vn 0.8175 -0.5759 -0.0000
vn 0.7031 0.7111 0.0000
vn -0.5781 -0.5759 0.5781
vn 0.0000 -0.5759 -0.8175
vn 0.5781 -0.5759 -0.5781
vn 0.0000 0.7111 0.7031
vn 0.5781 -0.5759 0.5781
vn -0.0000 0.7111 -0.7031
vn -0.8175 -0.5759 -0.0000
vn -0.7071 0.0061 -0.7071
vn 0.0000 0.9750 -0.2220
vn 0.0000 0.0061 -1.0000
vn -0.7071 0.0061 0.7071
vn 1.0000 0.0061 -0.0000
vn -1.0000 0.0061 -0.0000
vn 0.7071 0.0061 -0.7071
vn -0.2220 0.9750 -0.0000
vn 0.0000 0.9750 0.2220
vn 0.1570 0.9750 -0.1570
vn -0.1570 0.9750 -0.1570
vn -0.1570 0.9750 0.1570
vn 0.2220 0.9750 0.0000
vn 0.1570 0.9750 0.1570
s 1
f 1/1/1 2/2/2 3/3/3
f 3/3/3 4/4/4 5/5/5
f 1/6/1 6/7/6 7/8/7
f 8/9/8 5/10/5 4/11/4
f 2/12/2 9/13/9 4/14/4
f 7/8/7 6/7/6 10/15/10
f 8/9/8 4/11/4 9/16/9
f 7/17/7 11/18/11 2/12/2
f 11/18/11 12/19/12 9/13/9
f 10/15/10 6/7/6 13/20/13
f 8/9/8 9/16/9 12/21/12
f 10/22/10 14/23/14 11/18/11
f 13/24/13 15/25/15 14/26/14
f 14/26/14 16/27/16 12/28/12
f 13/20/13 6/7/6 17/29/17
f 8/9/8 12/21/12 16/30/16
f 8/9/8 16/30/16 18/31/18
f 17/32/17 19/33/19 15/25/15
f 16/27/16 19/33/19 18/34/18
f 17/29/17 6/7/6 20/35/20
f 8/9/8 18/31/18 21/36/21
f 19/37/19 22/38/22 23/39/23
f 19/37/19 21/40/21 18/41/18
f 20/35/20 6/7/6 22/42/22
f 8/9/8 21/36/21 24/43/24
f 22/38/22 25/44/25 23/39/23
f 23/39/23 24/45/24 21/40/21
f 22/42/22 6/7/6 26/46/26
f 8/9/8 24/43/24 5/10/5
f 26/47/26 3/3/3 25/48/25
f 25/48/25 5/5/5 24/49/24
f 26/46/26 6/7/6 1/6/1
f 27/50/27 28/51/28 29/52/29
f 30/53/30 31/54/31 32/55/32
f 33/56/33 32/55/32 34/57/34
f 35/58/35 29/59/29 36/60/36
f 37/61/37 36/60/36 31/62/31
f 38/63/38 39/64/39 40/65/40
f 41/66/41 42/67/42 43/68/43
f 44/69/44 45/70/45 42/67/42
f 46/71/46 33/72/33 34/73/34
f 29/74/29 47/75/47 48/76/48
f 36/77/36 48/76/48 49/78/49
f 50/79/50 51/80/51 46/71/46
f 28/81/28 52/82/52 47/75/47
f 53/83/53 40/84/40 54/85/54
f 55/86/55 56/87/56 38/88/38
f 57/89/57 43/68/43 56/87/56
f 31/90/31 49/78/49 58/91/58
f 46/92/46 59/93/59 60/94/60
f 52/82/52 46/92/46 60/94/60
f 32/95/32 58/91/58 61/96/61
f 34/97/34 61/96/61 59/93/59
f 62/98/62 53/83/53 54/85/54
f 63/99/63 53/100/53 64/101/64
f 65/102/65 38/88/38 53/100/53
f 66/103/66 67/104/67 68/105/68
f 47/106/47 63/107/63 69/108/69
f 41/109/41 49/110/49 44/111/44
f 68/105/68 64/112/64 62/113/62
f 48/114/48 69/108/69 70/115/70
f 49/110/49 70/116/70 44/111/44
f 42/117/42 66/118/66 71/119/71
f 59/120/59 57/121/57 55/122/55
f 57/121/57 58/123/58 41/124/41
f 72/125/72 66/126/66 62/127/62
f 35/128/35 73/129/73 27/130/27
f 74/131/74 35/128/35 37/132/37
f 75/133/75 76/134/76 77/135/77
f 73/129/73 75/133/75 27/130/27
f 43/136/43 71/119/71 72/137/72
f 52/138/52 65/139/65 63/140/63
f 65/139/65 59/141/59 55/142/55
f 78/143/78 79/144/79 74/145/74
f 78/146/78 37/132/37 30/147/30
f 76/134/76 51/148/51 77/135/77
f 28/51/28 77/149/77 50/150/50
f 80/151/80 30/147/30 33/152/33
f 51/148/51 80/151/80 33/152/33
f 56/153/56 72/154/72 39/64/39
f 45/70/45 69/155/69 67/156/67
f 69/155/69 64/101/64 67/156/67
f 81/157/81 82/158/82 83/159/83
f 73/160/73 84/161/84 85/162/85
f 80/163/80 81/164/81 86/165/86
f 73/166/73 87/167/87 88/168/88
f 76/169/76 81/164/81 89/170/89
f 76/171/76 84/161/84 90/172/90
f 74/173/74 87/167/87 91/174/91
f 78/143/78 86/175/86 92/176/92
f 93/177/93 94/178/94 95/179/95
f 92/180/92 93/177/93 79/181/79
f 81/157/81 96/182/96 86/183/86
f 88/184/88 97/185/97 84/186/84
f 90/187/90 97/185/97 82/158/82
f 79/181/79 95/179/95 87/188/87
f 86/183/86 98/189/98 92/180/92
f 88/184/88 95/179/95 99/190/99
f 94/178/94 100/191/100 101/192/101
f 96/182/96 100/191/100 98/189/98
f 95/179/95 102/193/102 99/190/99
f 82/158/82 101/192/101 83/159/83
f 93/177/93 100/191/100 103/194/103
f 83/159/83 104/195/104 96/182/96
f 99/190/99 105/196/105 97/185/97
f 97/185/97 106/197/106 82/158/82
f 1/1/1 7/198/7 2/2/2
f 3/3/3 2/2/2 4/4/4
f 2/12/2 11/18/11 9/13/9
f 7/17/7 10/22/10 11/18/11
f 11/18/11 14/23/14 12/19/12
f 10/22/10 13/199/13 14/23/14
f 13/24/13 17/32/17 15/25/15
f 14/26/14 15/25/15 16/27/16
f 17/32/17 20/200/20 19/33/19
f 16/27/16 15/25/15 19/33/19
f 19/37/19 20/201/20 22/38/22
f 19/37/19 23/39/23 21/40/21
f 22/38/22 26/202/26 25/44/25
f 23/39/23 25/44/25 24/45/24
f 26/47/26 1/1/1 3/3/3
f 25/48/25 3/3/3 5/5/5
f 27/50/27 75/203/75 28/51/28
f 30/53/30 37/204/37 31/54/31
f 33/56/33 30/53/30 32/55/32
f 35/58/35 27/205/27 29/59/29
f 37/61/37 35/58/35 36/60/36
f 38/63/38 56/153/56 39/64/39
f 41/66/41 44/69/44 42/67/42
f 44/69/44 70/206/70 45/70/45
f 46/71/46 51/80/51 33/72/33
f 29/74/29 28/81/28 47/75/47
f 36/77/36 29/74/29 48/76/48
f 50/79/50 77/207/77 51/80/51
f 28/81/28 50/208/50 52/82/52
f 53/83/53 38/209/38 40/84/40
f 55/86/55 57/89/57 56/87/56
f 57/89/57 41/66/41 43/68/43
f 31/90/31 36/77/36 49/78/49
f 46/92/46 34/97/34 59/93/59
f 52/82/52 50/208/50 46/92/46
f 32/95/32 31/90/31 58/91/58
f 34/97/34 32/95/32 61/96/61
f 62/98/62 64/210/64 53/83/53
f 63/99/63 65/102/65 53/100/53
f 65/102/65 55/86/55 38/88/38
f 66/103/66 45/211/45 67/104/67
f 47/106/47 52/212/52 63/107/63
f 41/109/41 58/213/58 49/110/49
f 68/105/68 67/104/67 64/112/64
f 48/114/48 47/106/47 69/108/69
f 49/110/49 48/214/48 70/116/70
f 42/117/42 45/215/45 66/118/66
f 59/120/59 61/216/61 57/121/57
f 57/121/57 61/216/61 58/123/58
f 62/127/62 54/217/54 40/218/40
f 40/218/40 39/219/39 62/127/62
f 39/219/39 72/125/72 62/127/62
f 72/125/72 71/220/71 66/126/66
f 66/126/66 68/221/68 62/127/62
f 35/128/35 91/222/91 73/129/73
f 74/131/74 91/222/91 35/128/35
f 75/133/75 85/223/85 76/134/76
f 73/129/73 85/223/85 75/133/75
f 43/136/43 42/117/42 71/119/71
f 52/138/52 60/224/60 65/139/65
f 65/139/65 60/224/60 59/141/59
f 78/143/78 92/176/92 79/144/79
f 78/146/78 74/131/74 37/132/37
f 76/134/76 89/225/89 51/148/51
f 28/51/28 75/203/75 77/149/77
f 80/151/80 78/146/78 30/147/30
f 51/148/51 89/225/89 80/151/80
f 56/153/56 43/226/43 72/154/72
f 45/70/45 70/206/70 69/155/69
f 69/155/69 63/99/63 64/101/64
f 81/157/81 90/187/90 82/158/82
f 73/160/73 88/227/88 84/161/84
f 80/163/80 89/170/89 81/164/81
f 73/166/73 91/174/91 87/167/87
f 76/169/76 90/228/90 81/164/81
f 76/171/76 85/162/85 84/161/84
f 74/173/74 79/229/79 87/167/87
f 78/143/78 80/230/80 86/175/86
f 93/177/93 103/194/103 94/178/94
f 92/180/92 98/189/98 93/177/93
f 81/157/81 83/159/83 96/182/96
f 88/184/88 99/190/99 97/185/97
f 90/187/90 84/186/84 97/185/97
f 79/181/79 93/177/93 95/179/95
f 86/183/86 96/182/96 98/189/98
f 88/184/88 87/188/87 95/179/95
f 101/192/101 106/197/106 105/196/105
f 105/196/105 102/193/102 94/178/94
f 94/178/94 103/194/103 100/191/100
f 100/191/100 104/195/104 101/192/101
f 101/192/101 105/196/105 94/178/94
f 96/182/96 104/195/104 100/191/100
f 95/179/95 94/178/94 102/193/102
f 82/158/82 106/197/106 101/192/101
f 93/177/93 98/189/98 100/191/100
f 83/159/83 101/192/101 104/195/104
f 99/190/99 102/193/102 105/196/105
f 97/185/97 105/196/105 106/197/106
